<svg version="1.1" id="Layer_1" xmlns="http://www.w3.org/2000/svg" xmlns:xlink="http://www.w3.org/1999/xlink" x="0px" y="0px" width="100%" viewBox="0 0 512 512" enable-background="new 0 0 512 512" xml:space="preserve">

<path fill="#000000" opacity="1.000000" stroke="none" d="
M0.999999,225.000000 
	C1.000000,150.406296 1.000000,75.812576 1.000000,1.000000 
	C75.354088,1.000000 149.708389,1.000000 224.566010,1.410946 
	C224.567230,2.182830 224.107620,2.766804 223.556763,2.871763 
	C212.662552,4.947539 201.707336,6.737646 190.879425,9.110234 
	C186.415848,10.088284 182.221237,12.293886 177.617737,13.862562 
	C176.206909,13.926861 175.082611,14.069751 173.726685,14.238626 
	C173.218140,14.434647 173.025513,14.672845 172.532700,14.990040 
	C157.565552,21.698757 142.832840,28.094748 128.469986,35.234810 
	C122.237610,38.333054 116.766678,42.963028 110.601410,46.960953 
	C106.665993,49.620308 103.056831,52.185898 99.495850,54.816704 
	C80.955475,68.514084 65.217278,85.144104 51.409588,103.380920 
	C37.957581,121.147949 27.073490,140.612732 18.858532,161.447708 
	C11.892821,179.114304 6.508455,197.198502 3.888330,216.069260 
	C3.464607,219.121017 1.989246,222.026764 0.999999,225.000000 
z" data-index="1" style="opacity: 1; visibility: hidden;"></path>

<path fill="#000000" opacity="1.000000" stroke="none" d="
M513.000000,289.000000 
	C513.000000,363.593719 513.000000,438.187408 513.000000,513.000000 
	C438.645905,513.000000 364.291626,513.000000 289.501831,512.602783 
	C289.576355,511.846283 290.042297,511.275330 290.602875,511.158539 
	C303.971985,508.372772 317.537598,506.309235 330.669464,502.675842 
	C341.082367,499.794708 350.966064,495.000885 361.445068,491.000427 
	C370.639069,486.406464 379.672394,482.215088 388.268890,477.265106 
	C413.697113,462.623230 435.404144,443.427277 454.190887,421.049591 
	C469.047119,403.353668 481.170929,383.832458 490.736481,362.697693 
	C500.924774,340.186981 507.676758,316.772461 511.060852,292.331116 
	C511.223877,291.153809 512.332031,290.107391 513.000000,289.000000 
z" data-index="3" style="opacity: 1; visibility: hidden;"></path>
<path fill="#333F44" opacity="1.000000" stroke="none" d="
M513.000000,288.531342 
	C512.332031,290.107391 511.223877,291.153809 511.060852,292.331116 
	C507.676758,316.772461 500.924774,340.186981 490.736481,362.697693 
	C481.170929,383.832458 469.047119,403.353668 454.190887,421.049591 
	C435.404144,443.427277 413.697113,462.623230 388.268890,477.265106 
	C379.672394,482.215088 370.639069,486.406464 361.206299,490.709534 
	C361.295837,487.202087 361.549805,483.757355 362.764130,480.693207 
	C365.240204,474.445374 368.233704,468.402649 371.286682,462.051880 
	C383.946716,453.166260 397.122589,445.430878 408.582642,435.679108 
	C454.304535,396.772644 481.248169,347.228394 489.575043,287.744751 
	C491.042480,277.261932 491.357239,266.617737 492.249969,255.478653 
	C487.807190,256.068634 484.403748,256.520569 481.004791,256.579529 
	C481.488464,254.463806 481.841705,252.693665 482.469727,251.027084 
	C484.595215,245.386642 486.818024,239.782913 489.296143,233.923737 
	C489.793060,232.455780 489.997528,231.229233 490.529510,229.920197 
	C491.952301,228.462128 493.348663,227.231049 494.090515,225.685776 
	C497.228241,219.149857 500.061768,212.466568 503.263977,205.963974 
	C504.042755,204.382553 505.799835,203.282913 507.107025,201.961731 
	C508.478760,210.485687 509.831726,219.012756 511.251282,227.528748 
	C511.393921,228.384399 511.939972,229.172806 512.649414,229.996216 
	C513.000000,249.354233 513.000000,268.708466 513.000000,288.531342 
z" data-index="4" style="opacity: 1;"></path>
<path fill="#586166" opacity="1.000000" stroke="none" d="
M0.999999,225.468658 
	C1.989246,222.026764 3.464607,219.121017 3.888330,216.069260 
	C6.508455,197.198502 11.892821,179.114304 18.858532,161.447708 
	C27.073490,140.612732 37.957581,121.147949 51.409588,103.380920 
	C65.217278,85.144104 80.955475,68.514084 99.495850,54.816704 
	C103.056831,52.185898 106.665993,49.620308 110.851616,47.187256 
	C114.411301,46.478199 117.372292,45.606514 120.990509,44.541351 
	C120.450104,46.238300 120.193611,47.476536 119.676727,48.594372 
	C116.963631,54.461868 113.980324,60.215580 111.542938,66.193153 
	C110.725288,68.198387 111.240227,70.746986 110.952911,73.325684 
	C67.385246,108.955772 39.347023,153.824173 27.517439,208.572357 
	C25.715166,216.913422 25.441605,225.584793 24.340385,234.515198 
	C17.867374,248.852417 11.514954,262.777802 4.838983,277.412476 
	C3.023878,274.380585 2.011941,272.690308 1.000002,271.000000 
	C1.000000,255.979111 1.000000,240.958206 0.999999,225.468658 
z" data-index="5" style="opacity: 1;"></path>
<path fill="#555F64" opacity="1.000000" stroke="none" d="
M1.000002,271.467957 
	C2.011941,272.690308 3.023878,274.380585 4.838983,277.412476 
	C11.514954,262.777802 17.867374,248.852417 24.751244,234.549988 
	C35.525112,236.020279 45.767532,237.867584 55.991753,240.119781 
	C55.248146,242.499146 54.511009,244.469421 53.799732,246.448975 
	C52.221664,250.840942 48.843372,254.997360 51.575920,260.064941 
	C41.705124,258.622711 32.257828,257.133850 23.088474,255.688812 
	C23.088474,265.424377 22.079214,274.904266 23.332561,284.074890 
	C25.073769,296.815063 28.512028,309.323303 30.867664,322.004364 
	C29.350441,323.366791 27.855978,324.484802 27.091150,325.976807 
	C24.848614,330.351501 22.807812,334.836884 20.863455,339.354431 
	C19.692511,342.075043 18.079287,343.295471 15.167027,341.995300 
	C11.442045,327.576813 7.696096,313.163696 4.008113,298.735748 
	C3.176677,295.483032 2.547271,292.178711 1.412432,288.949066 
	C1.000000,283.311951 1.000000,277.623932 1.000002,271.467957 
z" data-index="6"></path>
<path fill="#384449" opacity="1.000000" stroke="none" d="
M371.013977,462.275421 
	C368.233704,468.402649 365.240204,474.445374 362.764130,480.693207 
	C361.549805,483.757355 361.295837,487.202087 360.845947,490.765472 
	C350.966064,495.000885 341.082367,499.794708 330.669464,502.675842 
	C317.537598,506.309235 303.971985,508.372772 290.602875,511.158539 
	C290.042297,511.275330 289.576355,511.846283 289.033173,512.602783 
	C283.977905,513.000000 278.955811,513.000000 273.484070,512.635925 
	C275.093719,508.374298 276.921906,504.328735 279.290771,500.629395 
	C280.966370,498.012878 283.453552,495.928802 285.414764,493.476135 
	C286.175873,492.524292 286.486877,491.212463 287.384766,489.929443 
	C317.188873,485.682709 344.892212,476.371277 371.013977,462.275421 
z" data-index="7"></path>
<path fill="#3E494E" opacity="1.000000" stroke="none" d="
M287.002930,490.064606 
	C286.486877,491.212463 286.175873,492.524292 285.414764,493.476135 
	C283.453552,495.928802 280.966370,498.012878 279.290771,500.629395 
	C276.921906,504.328735 275.093719,508.374298 273.017212,512.635925 
	C257.312439,513.000000 241.624878,513.000000 225.468658,513.000000 
	C222.927185,512.270996 220.904480,511.301910 218.772385,510.856873 
	C211.695328,509.379608 204.578873,508.091003 197.278778,506.083221 
	C199.720703,498.980438 202.361389,492.524475 205.399414,486.046753 
	C217.613831,487.710083 229.391022,490.343994 241.257935,490.842682 
	C256.468506,491.481934 271.751251,490.403137 287.002930,490.064606 
z" data-index="8"></path>
<path fill="#4D565B" opacity="1.000000" stroke="none" d="
M288.531342,0.999997 
	C291.793274,1.973572 294.528778,3.199945 297.394897,3.854548 
	C300.722168,4.614481 304.164001,4.872720 307.586578,5.940130 
	C306.376038,10.092578 305.111511,13.645632 303.901367,17.217115 
	C302.898254,20.177782 301.959167,23.160151 300.557861,26.142057 
	C289.083466,25.074379 278.042969,23.997547 266.538086,22.839470 
	C255.385178,23.050253 244.696640,23.342281 234.012909,23.265953 
	C235.434219,19.418896 236.593277,15.805018 238.331360,12.495197 
	C240.580536,8.212081 242.130524,4.299972 237.000000,1.000000 
	C254.020889,1.000000 271.041779,1.000000 288.531342,0.999997 
z" data-index="9"></path>
<path fill="#515B60" opacity="1.000000" stroke="none" d="
M236.539368,1.000000 
	C242.130524,4.299972 240.580536,8.212081 238.331360,12.495197 
	C236.593277,15.805018 235.434219,19.418896 233.569977,23.304247 
	C225.041443,25.012960 216.960663,26.315027 208.469177,27.663395 
	C196.038986,31.129721 184.019516,34.549744 172.004898,37.573845 
	C174.203583,31.723385 176.344666,26.246759 178.614822,20.824173 
	C179.657227,18.334240 181.088058,15.936882 177.904297,13.941154 
	C182.221237,12.293886 186.415848,10.088284 190.879425,9.110234 
	C201.707336,6.737646 212.662552,4.947539 223.556763,2.871763 
	C224.107620,2.766804 224.567230,2.182830 225.034668,1.410946 
	C228.692902,1.000000 232.385818,1.000000 236.539368,1.000000 
z" data-index="10" style="opacity: 1;"></path>
<path fill="#485156" opacity="1.000000" stroke="none" d="
M300.991699,26.132900 
	C301.959167,23.160151 302.898254,20.177782 303.901367,17.217115 
	C305.111511,13.645632 306.376038,10.092578 307.860046,6.235864 
	C320.330994,9.267736 332.599640,12.455449 344.766541,15.993114 
	C349.494995,17.367973 353.993805,19.532743 358.899261,21.945047 
	C363.086975,25.221302 362.611145,28.156099 360.655365,32.064713 
	C358.746002,35.880512 358.067047,40.312000 356.491882,44.354767 
	C352.422546,42.857601 348.709290,41.478867 344.669678,39.943794 
	C339.617767,37.871281 335.004669,35.581337 330.142761,34.117985 
	C320.498291,31.215160 310.716644,28.768240 300.991699,26.132900 
z" data-index="11"></path>
<path fill="#3C474C" opacity="1.000000" stroke="none" d="
M440.050323,77.899178 
	C452.039062,89.191948 462.137054,102.021667 470.950195,115.897316 
	C471.482819,116.735893 472.073303,117.537712 472.367676,118.681747 
	C470.812592,119.572365 468.758148,119.815926 468.364807,120.755188 
	C465.672760,127.183029 463.329224,133.756836 460.608826,140.057953 
	C450.539795,126.292686 440.735260,112.753105 430.961243,98.825027 
	C434.011261,91.590752 437.030792,84.744965 440.050323,77.899178 
z" data-index="12" style="opacity: 1;"></path>
<path fill="#364147" opacity="1.000000" stroke="none" d="
M507.069336,201.545807 
	C505.799835,203.282913 504.042755,204.382553 503.263977,205.963974 
	C500.061768,212.466568 497.228241,219.149857 494.090515,225.685776 
	C493.348663,227.231049 491.952301,228.462128 490.442596,229.503281 
	C486.351562,212.779312 482.674957,196.389816 479.285645,179.816498 
	C483.731262,171.393860 487.889587,163.155029 492.047913,154.916199 
	C498.924438,169.710571 504.277863,184.998779 507.069336,201.545807 
z" data-index="13"></path>
<path fill="#434D53" opacity="1.000000" stroke="none" d="
M356.847931,44.473194 
	C358.067047,40.312000 358.746002,35.880512 360.655365,32.064713 
	C362.611145,28.156099 363.086975,25.221302 359.120850,22.219954 
	C373.934418,30.051645 388.828430,38.215790 403.696411,46.905548 
	C405.553101,52.977074 402.925873,57.643436 400.805176,62.435703 
	C399.813538,64.676575 399.041626,67.014664 397.860718,69.135849 
	C383.983521,60.799728 370.415710,52.636459 356.847931,44.473194 
z" data-index="14"></path>
<path fill="#394349" opacity="1.000000" stroke="none" d="
M491.990906,154.560272 
	C487.889587,163.155029 483.731262,171.393860 479.061005,179.540695 
	C472.657196,166.393677 466.765289,153.338654 460.873352,140.283615 
	C463.329224,133.756836 465.672760,127.183029 468.364807,120.755188 
	C468.758148,119.815926 470.812592,119.572365 472.468231,119.000504 
	C479.203339,130.730865 485.568634,142.467606 491.990906,154.560272 
z" data-index="15" style="opacity: 1;"></path>
<path fill="#404A50" opacity="1.000000" stroke="none" d="
M398.170135,69.308701 
	C399.041626,67.014664 399.813538,64.676575 400.805176,62.435703 
	C402.925873,57.643436 405.553101,52.977074 403.900421,47.182217 
	C415.993835,57.065350 427.857117,67.197433 439.885376,77.614349 
	C437.030792,84.744965 434.011261,91.590752 430.673767,98.643600 
	C426.915588,95.536781 423.475403,92.222893 419.877991,88.629837 
	C418.144623,86.904533 416.568481,85.458405 414.833374,83.718704 
	C409.173004,78.719666 403.671570,74.014183 398.170135,69.308701 
z" data-index="16" style="opacity: 1;"></path>
<path fill="#555E63" opacity="1.000000" stroke="none" d="
M177.617737,13.862562 
	C181.088058,15.936882 179.657227,18.334240 178.614822,20.824173 
	C176.344666,26.246759 174.203583,31.723385 171.714783,37.778305 
	C165.580246,41.102242 159.740692,43.825794 153.546722,46.652153 
	C138.315338,54.141262 123.837723,62.166203 111.146072,73.047226 
	C111.240227,70.746986 110.725288,68.198387 111.542938,66.193153 
	C113.980324,60.215580 116.963631,54.461868 119.676727,48.594372 
	C120.193611,47.476536 120.450104,46.238300 120.990509,44.541351 
	C117.372292,45.606514 114.411301,46.478199 111.200104,47.123581 
	C116.766678,42.963028 122.237610,38.333054 128.469986,35.234810 
	C142.832840,28.094748 157.565552,21.698757 172.729126,14.895071 
	C173.560211,14.635387 173.776321,14.443177 173.958328,14.212639 
	C175.082611,14.069751 176.206909,13.926861 177.617737,13.862562 
z" data-index="17"></path>
<path fill="#515B60" opacity="1.000000" stroke="none" d="
M173.726685,14.238626 
	C173.776321,14.443177 173.560211,14.635387 173.113617,14.884237 
	C173.025513,14.672845 173.218140,14.434647 173.726685,14.238626 
z" data-index="18"></path>
<path fill="#444E54" opacity="1.000000" stroke="none" d="
M205.002075,486.068512 
	C202.361389,492.524475 199.720703,498.980438 197.009567,505.805054 
	C182.980942,501.614532 168.840591,497.534851 155.129532,492.325317 
	C146.199554,488.932373 137.893936,483.896118 129.477219,479.291290 
	C131.470184,477.575897 133.806946,476.505249 135.014557,474.685364 
	C137.706894,470.628021 139.835190,466.196350 142.414642,461.942383 
	C142.635941,461.967529 142.988373,462.239990 143.011505,462.555450 
	C144.019302,463.259583 145.003983,463.648285 146.343292,464.073639 
	C150.548599,466.018524 154.257721,468.320343 158.275040,469.765228 
	C173.797363,475.348022 189.418045,480.657318 205.002075,486.068512 
z" data-index="19"></path>
<path fill="#515B60" opacity="1.000000" stroke="none" d="
M15.137159,342.366425 
	C18.079287,343.295471 19.692511,342.075043 20.863455,339.354431 
	C22.807812,334.836884 24.848614,330.351501 27.091150,325.976807 
	C27.855978,324.484802 29.350441,323.366791 31.102934,322.278564 
	C37.647018,342.431885 45.548393,361.511536 57.049889,379.334167 
	C57.860607,381.062988 58.634968,382.452240 59.018421,383.888550 
	C56.820107,385.818817 54.844704,387.570312 53.241909,389.614014 
	C50.328178,393.329315 50.505272,399.301666 44.878109,401.054382 
	C32.403645,382.917664 22.550358,363.442810 15.137159,342.366425 
z" data-index="20"></path>
<path fill="#495358" opacity="1.000000" stroke="none" d="
M142.193329,461.917236 
	C139.835190,466.196350 137.706894,470.628021 135.014557,474.685364 
	C133.806946,476.505249 131.470184,477.575897 129.267319,479.012024 
	C111.144386,468.930359 94.833275,456.906555 80.420090,442.309265 
	C82.282639,440.603027 84.445114,439.522156 85.478394,437.773895 
	C88.038322,433.442535 90.081978,428.806061 92.631058,424.474365 
	C95.719872,427.237213 98.295227,430.111053 101.338661,432.348053 
	C114.883713,442.303986 128.562729,452.077667 142.193329,461.917236 
z" data-index="21"></path>
<path fill="#4D575C" opacity="1.000000" stroke="none" d="
M92.333076,424.292206 
	C90.081978,428.806061 88.038322,433.442535 85.478394,437.773895 
	C84.445114,439.522156 82.282639,440.603027 80.258766,442.012878 
	C66.581802,430.075073 55.322662,416.357269 45.038574,401.359192 
	C50.505272,399.301666 50.328178,393.329315 53.241909,389.614014 
	C54.844704,387.570312 56.820107,385.818817 59.265453,384.103729 
	C61.779461,387.188446 63.372486,390.341980 65.581383,392.979858 
	C74.394485,403.504517 83.399254,413.868652 92.333076,424.292206 
z" data-index="22"></path>
<path fill="#E6E6E6" opacity="1.000000" stroke="none" d="
M92.631058,424.474365 
	C83.399254,413.868652 74.394485,403.504517 65.581383,392.979858 
	C63.372486,390.341980 61.779461,387.188446 59.656361,384.056702 
	C58.634968,382.452240 57.860607,381.062988 57.411461,379.336487 
	C62.063408,382.276031 66.395370,385.545990 70.716042,388.830780 
	C104.534988,414.541504 142.155273,430.971893 184.549042,436.258270 
	C210.384003,439.479858 236.069901,438.928101 261.445587,433.527649 
	C312.181549,422.730164 355.012604,398.083862 389.547058,359.095551 
	C414.312714,331.135895 431.295288,299.144287 441.385773,263.065399 
	C454.866119,260.967133 467.933228,258.969818 481.000305,256.972534 
	C484.403748,256.520569 487.807190,256.068634 492.249969,255.478653 
	C491.357239,266.617737 491.042480,277.261932 489.575043,287.744751 
	C481.248169,347.228394 454.304535,396.772644 408.582642,435.679108 
	C397.122589,445.430878 383.946716,453.166260 371.286713,462.051880 
	C344.892212,476.371277 317.188873,485.682709 287.384766,489.929443 
	C271.751251,490.403137 256.468506,491.481934 241.257935,490.842682 
	C229.391022,490.343994 217.613831,487.710083 205.399414,486.046753 
	C189.418045,480.657318 173.797363,475.348022 158.275040,469.765228 
	C154.257721,468.320343 150.548599,466.018524 146.148590,463.848145 
	C144.728958,463.137329 143.858658,462.688660 142.988373,462.239990 
	C142.988373,462.239990 142.635941,461.967529 142.414642,461.942383 
	C128.562729,452.077667 114.883713,442.303986 101.338661,432.348053 
	C98.295227,430.111053 95.719872,427.237213 92.631058,424.474365 
z" data-index="23" style="opacity: 1;"></path>
<path fill="#CE3B37" opacity="1.000000" stroke="none" d="
M420.035217,88.909012 
	C423.475403,92.222893 426.915588,95.536781 430.643250,99.032089 
	C440.735260,112.753105 450.539795,126.292686 460.608826,140.057953 
	C466.765289,153.338654 472.657196,166.393677 478.773743,179.724518 
	C482.674957,196.389816 486.351562,212.779312 490.115082,229.585754 
	C489.997528,231.229233 489.793060,232.455780 488.897766,233.928955 
	C474.126892,236.395020 460.046844,238.614456 445.974243,240.410034 
	C446.068237,238.659378 446.030975,237.310852 446.259674,236.009048 
	C450.060059,214.374466 449.811188,192.682739 446.713348,171.034821 
	C442.886261,144.290817 434.589417,118.938248 422.051178,94.979431 
	C421.075439,93.114914 420.693237,90.939781 420.035217,88.909012 
z" data-index="24" style="opacity: 1;"></path>
<path fill="#364147" opacity="1.000000" stroke="none" d="
M445.966766,240.833893 
	C460.046844,238.614456 474.126892,236.395020 488.605316,234.170349 
	C486.818024,239.782913 484.595215,245.386642 482.469727,251.027084 
	C481.841705,252.693665 481.488464,254.463806 481.004791,256.579529 
	C467.933228,258.969818 454.866119,260.967133 440.950500,263.013550 
	C433.403900,263.634552 426.705902,264.206451 420.031250,264.409637 
	C421.582764,260.268341 423.168549,256.517731 424.621155,252.716248 
	C425.829620,249.553650 426.881592,246.331253 428.420654,243.043503 
	C434.547882,242.245743 440.257324,241.539810 445.966766,240.833893 
z" data-index="25" style="opacity: 1;"></path>
<path fill="#E95C59" opacity="1.000000" stroke="none" d="
M110.952911,73.325684 
	C123.837723,62.166203 138.315338,54.141262 153.554443,47.071693 
	C153.510361,48.812271 153.285751,50.320145 152.671448,51.647694 
	C135.720993,88.279015 118.773064,124.911636 101.731873,161.500793 
	C91.211044,184.090088 80.490738,206.586487 69.982231,229.181442 
	C68.321655,232.751923 67.309113,236.623764 65.541924,240.356415 
	C62.061253,240.142670 59.035603,239.928787 56.009956,239.714890 
	C45.767532,237.867584 35.525112,236.020279 24.871834,234.138184 
	C25.441605,225.584793 25.715166,216.913422 27.517439,208.572357 
	C39.347023,153.824173 67.385246,108.955772 110.952911,73.325684 
z" data-index="26" style="opacity: 1;"></path>
<path fill="#FFFFFF" opacity="1.000000" stroke="none" d="
M420.007874,264.778320 
	C426.705902,264.206451 433.403900,263.634552 440.537231,263.114502 
	C431.295288,299.144287 414.312714,331.135895 389.547058,359.095551 
	C355.012604,398.083862 312.181549,422.730164 261.445587,433.527649 
	C236.069901,438.928101 210.384003,439.479858 184.549042,436.258270 
	C142.155273,430.971893 104.534988,414.541504 70.716042,388.830780 
	C66.395370,385.545990 62.063408,382.276031 57.375103,378.996918 
	C45.548393,361.511536 37.647018,342.431885 31.459076,322.205017 
	C28.512028,309.323303 25.073769,296.815063 23.332561,284.074890 
	C22.079214,274.904266 23.088474,265.424377 23.088474,255.688812 
	C32.257828,257.133850 41.705124,258.622711 51.933559,260.245697 
	C68.807259,261.955139 84.899826,263.530457 101.378532,265.266571 
	C116.888100,266.065094 132.008545,266.799500 147.137268,267.265320 
	C150.475357,267.368073 151.771500,268.372986 152.054398,271.779846 
	C152.367981,275.556061 153.487350,279.265350 154.268433,283.369385 
	C154.512741,284.530884 154.741196,285.327789 154.976639,286.122559 
	C161.263260,307.344604 172.389435,325.380615 190.079300,339.489990 
	C208.589417,354.512787 229.323380,362.875397 253.464325,363.426819 
	C278.351624,363.974792 300.605530,357.457336 320.456177,342.277161 
	C343.378601,324.728516 357.048676,301.856995 361.625824,273.795135 
	C362.492004,268.484528 364.139557,267.261261 369.253418,267.129700 
	C386.180542,266.694183 403.091003,265.612244 420.007874,264.778320 
z" data-index="27" style="opacity: 1;"></path>
<path fill="#545D62" opacity="1.000000" stroke="none" d="
M100.992386,265.105774 
	C84.899826,263.530457 68.807259,261.955139 52.357056,260.199097 
	C48.843372,254.997360 52.221664,250.840942 53.799732,246.448975 
	C54.511009,244.469421 55.248146,242.499146 55.991753,240.119781 
	C59.035603,239.928787 62.061253,240.142670 65.900139,240.507431 
	C80.808319,242.108444 94.903267,243.558578 108.933243,245.374130 
	C106.242981,252.194962 103.617683,258.650360 100.992386,265.105774 
z" data-index="28" style="opacity: 1;"></path>
<path fill="#E95652" opacity="1.000000" stroke="none" d="
M208.879913,27.617096 
	C216.960663,26.315027 225.041443,25.012960 233.565155,23.672604 
	C244.696640,23.342281 255.385178,23.050253 266.520020,23.223694 
	C266.708832,24.647627 266.586700,25.669035 266.174377,26.555496 
	C247.927872,65.786240 229.608276,104.983093 211.432297,144.246445 
	C208.312714,150.985291 205.791901,158.001358 202.744141,165.129761 
	C198.000504,168.409119 193.056595,170.953842 189.089767,174.570312 
	C169.009872,192.876755 155.613129,214.985901 151.983215,242.342499 
	C151.636749,244.953583 150.740417,246.231506 147.933136,246.108490 
	C135.291092,245.554474 122.644554,245.103195 110.005707,244.246307 
	C110.482918,242.301819 110.772217,240.642029 111.454391,239.163498 
	C116.332115,228.591721 121.320068,218.070862 126.216454,207.507629 
	C140.693909,176.274673 155.097626,145.007431 169.622833,113.796738 
	C180.009720,91.478203 190.617630,69.262421 200.969315,46.927742 
	C203.891418,40.623066 206.258362,34.061073 208.879913,27.617096 
z" data-index="29" style="opacity: 1;"></path>
<path fill="#E8514D" opacity="1.000000" stroke="none" d="
M202.994492,164.889343 
	C205.791901,158.001358 208.312714,150.985291 211.432297,144.246445 
	C229.608276,104.983093 247.927872,65.786240 266.174377,26.555496 
	C266.586700,25.669035 266.708832,24.647627 266.984375,23.304939 
	C278.042969,23.997547 289.083466,25.074379 300.557831,26.142056 
	C310.716644,28.768240 320.498291,31.215160 330.142761,34.117985 
	C335.004669,35.581337 339.617767,37.871281 344.601929,40.299812 
	C339.320923,53.045563 333.885376,65.327362 328.219177,77.501831 
	C317.859344,99.761139 307.297272,121.926498 296.986481,144.208313 
	C295.203033,148.062347 294.243561,152.297668 292.516602,156.278473 
	C285.465363,154.704971 278.801025,153.209885 271.771332,151.534042 
	C268.437347,151.049393 265.474976,150.583862 262.499023,150.468124 
	C244.816422,149.780365 227.819504,152.553345 211.582443,160.825729 
	C208.485306,162.232315 205.739899,163.560837 202.994492,164.889343 
z" data-index="30" style="opacity: 1;"></path>
<path fill="#E95956" opacity="1.000000" stroke="none" d="
M208.469177,27.663395 
	C206.258362,34.061073 203.891418,40.623066 200.969315,46.927742 
	C190.617630,69.262421 180.009720,91.478203 169.622833,113.796738 
	C155.097626,145.007431 140.693909,176.274673 126.216454,207.507629 
	C121.320068,218.070862 116.332115,228.591721 111.454391,239.163498 
	C110.772217,240.642029 110.482918,242.301819 109.756447,244.347717 
	C109.333496,244.881378 109.165855,244.945038 108.998207,245.008713 
	C94.903267,243.558578 80.808319,242.108444 66.355164,240.507294 
	C67.309113,236.623764 68.321655,232.751923 69.982231,229.181442 
	C80.490738,206.586487 91.211044,184.090088 101.731873,161.500793 
	C118.773064,124.911636 135.720993,88.279015 152.671448,51.647694 
	C153.285751,50.320145 153.510361,48.812271 153.908875,46.968895 
	C159.740692,43.825794 165.580246,41.102242 171.709930,38.174225 
	C184.019516,34.549744 196.038986,31.129721 208.469177,27.663395 
z" data-index="31" style="opacity: 1;"></path>
<path fill="#E74B47" opacity="1.000000" stroke="none" d="
M292.903503,156.356873 
	C294.243561,152.297668 295.203033,148.062347 296.986481,144.208313 
	C307.297272,121.926498 317.859344,99.761139 328.219177,77.501831 
	C333.885376,65.327362 339.320923,53.045563 344.928223,40.456146 
	C348.709290,41.478867 352.422546,42.857601 356.491882,44.354763 
	C370.415710,52.636459 383.983521,60.799728 397.860718,69.135849 
	C403.671570,74.014183 409.173004,78.719666 414.661743,84.013298 
	C413.714172,86.172501 412.644287,87.679604 411.865204,89.324448 
	C403.458618,107.072998 395.051544,124.821648 386.740875,142.615204 
	C381.319672,154.222275 376.161285,165.952606 370.693451,177.537247 
	C365.157806,189.265564 359.386169,200.882477 353.481232,212.279907 
	C351.760468,209.344788 350.276398,206.677948 348.703888,203.687088 
	C342.584595,193.218979 335.535553,183.924179 326.026245,176.261261 
	C316.201996,167.197220 304.814117,161.339050 292.903503,156.356873 
z" data-index="32" style="opacity: 1;"></path>
<path fill="#E64541" opacity="1.000000" stroke="none" d="
M353.717896,212.548187 
	C359.386169,200.882477 365.157806,189.265564 370.693451,177.537247 
	C376.161285,165.952606 381.319672,154.222275 386.740875,142.615204 
	C395.051544,124.821648 403.458618,107.072998 411.865204,89.324448 
	C412.644287,87.679604 413.714172,86.172501 414.820679,84.306854 
	C416.568481,85.458405 418.144623,86.904533 419.877991,88.629837 
	C420.693237,90.939781 421.075439,93.114914 422.051178,94.979431 
	C434.589417,118.938248 442.886261,144.290817 446.713348,171.034821 
	C449.811188,192.682739 450.060059,214.374466 446.259674,236.009048 
	C446.030975,237.310852 446.068237,238.659378 445.974243,240.410034 
	C440.257324,241.539810 434.547882,242.245743 427.980713,242.996063 
	C405.747955,244.379745 384.372864,245.719009 362.804382,246.722473 
	C359.646606,235.107178 356.682281,223.827682 353.717896,212.548187 
z" data-index="33"></path>
<path fill="#495358" opacity="1.000000" stroke="none" d="
M143.011505,462.555450 
	C143.858658,462.688660 144.728958,463.137329 145.793961,463.811462 
	C145.003983,463.648285 144.019302,463.259583 143.011505,462.555450 
z" data-index="34"></path>
<path fill="#3C464C" opacity="1.000000" stroke="none" d="
M362.997803,247.058273 
	C384.372864,245.719009 405.747955,244.379745 427.562958,243.087906 
	C426.881592,246.331253 425.829620,249.553650 424.621155,252.716248 
	C423.168549,256.517731 421.582764,260.268341 420.031250,264.409637 
	C403.091003,265.612244 386.180542,266.694183 369.253418,267.129700 
	C364.139557,267.261261 362.492004,268.484528 361.625824,273.795135 
	C357.048676,301.856995 343.378601,324.728516 320.442963,341.871368 
	C320.438568,340.330353 320.603699,338.986084 321.126862,337.799652 
	C325.273682,328.395172 329.377686,318.969208 333.705292,309.647491 
	C343.404907,288.754456 353.226105,267.917847 362.997803,247.058273 
z" data-index="35" style="opacity: 1;"></path>
<path fill="#4D575C" opacity="1.000000" stroke="none" d="
M108.933243,245.374130 
	C109.165855,244.945038 109.333496,244.881378 109.750381,244.716293 
	C122.644554,245.103195 135.291092,245.554474 147.933136,246.108490 
	C150.740417,246.231506 151.636749,244.953583 151.983215,242.342499 
	C155.613129,214.985901 169.009872,192.876755 189.089767,174.570312 
	C193.056595,170.953842 198.000504,168.409119 202.744141,165.129745 
	C205.739899,163.560837 208.485306,162.232315 211.594299,161.237061 
	C211.509476,163.303436 211.300598,165.145447 210.570724,166.750549 
	C207.634613,173.207520 204.401230,179.532379 201.589828,186.040894 
	C200.830856,187.797928 201.170746,190.029587 200.837982,192.326309 
	C182.364868,209.791641 171.952087,230.556549 171.533310,256.041687 
	C169.996628,257.292297 168.427841,258.325439 167.694778,259.779816 
	C164.442825,266.231598 161.547043,272.864044 158.246140,279.289185 
	C157.465088,280.809448 155.614441,281.780212 154.255829,283.003784 
	C153.487350,279.265350 152.367981,275.556061 152.054398,271.779846 
	C151.771500,268.372986 150.475357,267.368073 147.137268,267.265320 
	C132.008545,266.799500 116.888100,266.065094 101.378532,265.266571 
	C103.617683,258.650360 106.242981,252.194962 108.933243,245.374130 
z" data-index="36" style="opacity: 1;"></path>
<path fill="#3F4A50" opacity="1.000000" stroke="none" d="
M362.804382,246.722473 
	C353.226105,267.917847 343.404907,288.754456 333.705292,309.647491 
	C329.377686,318.969208 325.273682,328.395172 321.126862,337.799652 
	C320.603699,338.986084 320.438568,340.330353 320.120789,342.007263 
	C300.605530,357.457336 278.351624,363.974792 253.491806,363.092102 
	C256.733887,355.751617 260.374573,348.905243 264.446106,342.042511 
	C269.737244,341.073578 274.645264,340.315094 279.449249,339.133575 
	C296.842651,334.855743 311.351746,325.510529 322.352325,311.682617 
	C343.118317,285.579407 347.733429,256.469696 336.418335,224.888733 
	C339.444366,219.174179 342.029572,213.514465 344.923950,208.017532 
	C345.754364,206.440353 347.478149,205.333572 348.792297,204.011108 
	C350.276398,206.677948 351.760468,209.344788 353.481262,212.279922 
	C356.682281,223.827682 359.646606,235.107178 362.804382,246.722473 
z" data-index="37" style="opacity: 1;"></path>
<path fill="#444F55" opacity="1.000000" stroke="none" d="
M264.015228,342.058899 
	C260.374573,348.905243 256.733887,355.751617 253.065735,362.932709 
	C229.323380,362.875397 208.589417,354.512787 190.096741,339.057495 
	C189.987823,337.338928 189.755951,336.240845 190.096603,335.365631 
	C191.710831,331.218353 193.157288,326.936523 195.431320,323.165649 
	C195.977768,322.259491 199.456131,323.125610 201.586395,323.161346 
	C201.737854,323.163910 201.891434,323.039551 202.378235,323.050140 
	C203.670929,323.761078 204.660889,324.353607 205.583160,325.037384 
	C219.380493,335.266876 234.735748,341.210846 252.451233,341.965637 
	C256.613281,342.007965 260.314270,342.033417 264.015228,342.058899 
z" data-index="38"></path>
<path fill="#495459" opacity="1.000000" stroke="none" d="
M202.044037,322.974182 
	C201.891434,323.039551 201.737854,323.163910 201.586395,323.161346 
	C199.456131,323.125610 195.977768,322.259491 195.431320,323.165649 
	C193.157288,326.936523 191.710831,331.218353 190.096603,335.365631 
	C189.755951,336.240845 189.987823,337.338928 189.938446,338.766846 
	C172.389435,325.380615 161.263260,307.344604 154.976639,286.122559 
	C154.741196,285.327789 154.512741,284.530884 154.268433,283.369385 
	C155.614441,281.780212 157.465088,280.809448 158.246140,279.289185 
	C161.547043,272.864044 164.442825,266.231598 167.694778,259.779816 
	C168.427841,258.325439 169.996628,257.292297 171.558914,256.504700 
	C172.304779,262.239471 172.244415,267.606720 173.120102,272.816650 
	C175.783569,288.663391 183.027145,302.304077 194.149292,314.296387 
	C196.892929,317.379974 199.468491,320.177063 202.044037,322.974182 
z" data-index="39"></path>
<path fill="#4A5459" opacity="1.000000" stroke="none" d="
M201.006256,192.043396 
	C201.170746,190.029587 200.830856,187.797928 201.589828,186.040894 
	C204.401230,179.532379 207.634613,173.207520 210.570724,166.750549 
	C211.300598,165.145447 211.509476,163.303436 211.946014,161.158997 
	C227.819504,152.553345 244.816422,149.780365 262.499023,150.468124 
	C265.474976,150.583862 268.437347,151.049393 271.613342,151.882812 
	C270.981598,154.404907 270.017334,156.355331 269.328888,158.398666 
	C267.816254,162.888199 266.443115,167.424713 264.675598,171.963470 
	C263.888275,172.007858 263.438324,172.030807 262.521179,172.039703 
	C239.005920,170.467758 218.919693,177.942459 201.006256,192.043396 
z" data-index="40"></path>
<path fill="#454F55" opacity="1.000000" stroke="none" d="
M265.013000,171.942047 
	C266.443115,167.424713 267.816254,162.888199 269.328888,158.398666 
	C270.017334,156.355331 270.981598,154.404907 271.978699,152.063568 
	C278.801025,153.209885 285.465363,154.704971 292.516602,156.278473 
	C304.814117,161.339050 316.201996,167.197220 325.846985,176.605957 
	C322.847137,183.160980 319.830627,189.114334 316.495514,194.988831 
	C312.473572,192.127457 308.893585,189.159683 305.044067,186.596771 
	C292.894440,178.507874 279.742462,173.039917 265.013000,171.942047 
z" data-index="41" style="opacity: 1;"></path>
<path fill="#414C51" opacity="1.000000" stroke="none" d="
M316.814117,195.067688 
	C319.830627,189.114334 322.847137,183.160980 326.042908,176.862915 
	C335.535553,183.924179 342.584595,193.218979 348.703888,203.687103 
	C347.478149,205.333572 345.754364,206.440353 344.923950,208.017532 
	C342.029572,213.514465 339.444366,219.174179 336.253601,224.566315 
	C331.474304,213.884750 325.560730,204.516998 317.006714,196.622437 
	C316.924896,195.896027 316.869507,195.481857 316.814117,195.067688 
z" data-index="42" style="opacity: 1;"></path>
<path fill="#5C6E77" opacity="1.000000" stroke="none" d="
M200.837967,192.326309 
	C218.919693,177.942459 239.005920,170.467758 262.520294,172.426468 
	C262.492188,174.549118 262.156067,176.336655 261.473724,177.980484 
	C259.392426,182.994446 257.177765,187.953064 254.574615,192.952347 
	C251.340088,193.302399 248.519287,193.485977 245.755875,193.986435 
	C207.135330,200.980484 183.753418,240.278671 196.442398,277.407349 
	C198.775986,284.235504 202.842972,290.471283 205.862183,297.237152 
	C203.732727,301.682495 201.780731,305.841522 199.994247,310.070465 
	C198.838333,312.806702 197.098816,314.393524 193.981216,314.009949 
	C183.027145,302.304077 175.783569,288.663391 173.120102,272.816650 
	C172.244415,267.606720 172.304779,262.239471 171.911514,256.481171 
	C171.952087,230.556549 182.364868,209.791641 200.837967,192.326309 
z" data-index="43" style="opacity: 1;"></path>
<path fill="#536670" opacity="1.000000" stroke="none" d="
M317.033142,196.934677 
	C325.560730,204.516998 331.474304,213.884750 335.930298,224.683014 
	C347.733429,256.469696 343.118317,285.579407 322.352325,311.682617 
	C311.351746,325.510529 296.842651,334.855743 279.449249,339.133575 
	C274.645264,340.315094 269.737244,341.073578 264.446106,342.042511 
	C260.314270,342.033417 256.613281,342.007965 252.473282,341.595276 
	C252.739914,339.369934 253.428741,337.525146 254.154434,335.694946 
	C256.091248,330.810272 258.043976,325.931885 260.416382,321.030334 
	C279.456512,319.410767 295.322784,312.005096 306.772003,297.146332 
	C326.160187,271.984375 325.973999,242.573959 307.381012,216.924103 
	C313.342865,211.391495 315.974884,204.530838 317.033142,196.934677 
z" data-index="44" style="opacity: 1;"></path>
<path fill="#586A73" opacity="1.000000" stroke="none" d="
M259.990356,321.050995 
	C258.043976,325.931885 256.091248,330.810272 254.154434,335.694946 
	C253.428741,337.525146 252.739914,339.369934 252.012207,341.578430 
	C234.735748,341.210846 219.380493,335.266876 205.583160,325.037384 
	C204.660889,324.353607 203.670929,323.761078 202.378235,323.050140 
	C199.468491,320.177063 196.892929,317.379974 194.149292,314.296387 
	C197.098816,314.393524 198.838333,312.806702 199.994247,310.070465 
	C201.780731,305.841522 203.732727,301.682495 206.136017,297.410126 
	C211.419678,301.241516 216.181839,305.156647 221.138657,309.345703 
	C232.846878,318.070068 245.807724,321.626373 259.990356,321.050995 
z" data-index="45"></path>
<path fill="#576A73" opacity="1.000000" stroke="none" d="
M317.006714,196.622437 
	C315.974884,204.530838 313.342865,211.391495 307.197968,216.644775 
	C301.789551,212.270676 296.906189,208.107574 291.833069,203.664490 
	C290.257874,202.501999 288.879547,201.608017 287.485748,200.738831 
	C279.382385,195.685455 270.109497,194.664429 260.669373,193.051392 
	C259.889038,193.042542 259.442932,193.051071 258.595551,193.048370 
	C257.122467,193.047440 256.050690,193.057755 254.988037,193.034393 
	C254.997177,193.000702 255.015015,192.933212 255.015015,192.933212 
	C257.177765,187.953064 259.392426,182.994446 261.473724,177.980484 
	C262.156067,176.336655 262.492188,174.549118 262.987488,172.440521 
	C263.438324,172.030807 263.888275,172.007858 264.675598,171.963470 
	C279.742462,173.039917 292.894440,178.507874 305.044067,186.596771 
	C308.893585,189.159683 312.473572,192.127457 316.495514,194.988831 
	C316.869507,195.481857 316.924896,195.896027 317.006714,196.622437 
z" data-index="46" style="opacity: 1;"></path>
<path fill="#495359" opacity="1.000000" stroke="none" d="
M220.944000,309.071747 
	C216.181839,305.156647 211.419678,301.241516 206.383682,297.153442 
	C202.842972,290.471283 198.775986,284.235504 196.442398,277.407349 
	C183.753418,240.278671 207.135330,200.980484 245.755875,193.986435 
	C248.519287,193.485977 251.340088,193.302399 254.574615,192.952347 
	C255.015015,192.933212 254.997177,193.000702 254.925278,193.369629 
	C251.964828,199.037552 248.878113,204.243500 246.316742,209.696213 
	C245.611191,211.198212 246.473480,213.436661 246.307175,215.558884 
	C228.463547,221.206940 217.761932,232.785797 214.868301,251.024933 
	C212.421082,266.450256 218.277390,279.006989 229.055359,290.003662 
	C226.301544,296.616028 223.622772,302.843872 220.944000,309.071747 
z" data-index="47" style="opacity: 1;"></path>
<path fill="#434E53" opacity="1.000000" stroke="none" d="
M221.138641,309.345703 
	C223.622772,302.843872 226.301544,296.616028 229.379547,290.141663 
	C252.673172,308.269379 284.883606,299.350525 296.004303,274.196167 
	C303.331787,257.621765 300.131073,235.457596 281.419373,221.324158 
	C283.004395,219.419617 284.376556,217.796326 285.422546,215.984711 
	C287.710480,212.022018 289.832825,207.963715 292.022797,203.944458 
	C296.906189,208.107574 301.789551,212.270676 306.855988,216.713104 
	C325.973999,242.573959 326.160187,271.984375 306.772003,297.146332 
	C295.322784,312.005096 279.456512,319.410767 260.416382,321.030334 
	C245.807724,321.626373 232.846878,318.070068 221.138641,309.345703 
z" data-index="48" style="opacity: 1;"></path>
<path fill="#455056" opacity="1.000000" stroke="none" d="
M291.833069,203.664490 
	C289.832825,207.963715 287.710480,212.022018 285.422546,215.984711 
	C284.376556,217.796326 283.004395,219.419617 281.122894,221.189636 
	C269.981567,214.706360 258.643982,213.046936 246.616364,215.337204 
	C246.473480,213.436661 245.611191,211.198212 246.316742,209.696213 
	C248.878113,204.243500 251.964828,199.037552 254.916138,193.403320 
	C256.050690,193.057755 257.122467,193.047440 258.663086,193.296814 
	C259.755829,193.393921 260.379761,193.231339 261.003662,193.068756 
	C270.109497,194.664429 279.382385,195.685455 287.485748,200.738831 
	C288.879547,201.608017 290.257874,202.501999 291.833069,203.664490 
z" data-index="49" style="opacity: 1;"></path>
<path fill="#495359" opacity="1.000000" stroke="none" d="
M260.669373,193.051392 
	C260.379761,193.231339 259.755829,193.393921 259.064392,193.308044 
	C259.442932,193.051071 259.889038,193.042542 260.669373,193.051392 
z" data-index="50"></path>
<path fill="#F3F3F3" opacity="1.000000" stroke="none" d="
M246.307175,215.558884 
	C258.643982,213.046936 269.981567,214.706360 280.762146,221.385498 
	C300.131073,235.457596 303.331787,257.621765 296.004303,274.196167 
	C284.883606,299.350525 252.673172,308.269379 229.454605,289.757141 
	C218.277390,279.006989 212.421082,266.450256 214.868301,251.024933 
	C217.761932,232.785797 228.463547,221.206940 246.307175,215.558884 
z" data-index="51" style="opacity: 1;"></path>
</svg>