<?xml version="1.0" encoding="UTF-8"?>
<svg xmlns="http://www.w3.org/2000/svg" xmlns:xlink="http://www.w3.org/1999/xlink" width="150px" height="150px" viewBox="0 0 384 384" version="1.1">
<g id="surface1">
<path style=" stroke:none;fill-rule:nonzero;fill:rgb(20%,24.705882%,26.666668%);fill-opacity:1;" d="M 384.75 216.398438 C 384.25 217.582031 383.417969 218.367188 383.296875 219.25 C 380.757812 237.578125 375.695312 255.140625 368.050781 272.023438 C 360.878906 287.875 351.785156 302.515625 340.644531 315.789062 C 326.554688 332.570312 310.273438 346.96875 291.203125 357.949219 C 284.753906 361.660156 277.980469 364.804688 270.90625 368.03125 C 270.972656 365.402344 271.164062 362.816406 272.074219 360.519531 C 273.929688 355.835938 276.175781 351.300781 278.464844 346.539062 C 287.960938 339.875 297.84375 334.074219 306.4375 326.757812 C 340.726562 297.578125 360.9375 260.421875 367.179688 215.808594 C 368.28125 207.945312 368.519531 199.964844 369.1875 191.609375 C 365.855469 192.050781 363.304688 192.390625 360.753906 192.433594 C 361.117188 190.847656 361.382812 189.519531 361.851562 188.269531 C 363.445312 184.039062 365.113281 179.835938 366.972656 175.441406 C 367.34375 174.34375 367.5 173.421875 367.898438 172.441406 C 368.964844 171.347656 370.011719 170.421875 370.566406 169.265625 C 372.921875 164.363281 375.046875 159.351562 377.449219 154.472656 C 378.03125 153.285156 379.351562 152.460938 380.332031 151.472656 C 381.359375 157.863281 382.375 164.257812 383.4375 170.648438 C 383.546875 171.289062 383.953125 171.878906 384.488281 172.496094 C 384.75 187.015625 384.75 201.53125 384.75 216.398438 Z M 384.75 216.398438 "/>
<path style=" stroke:none;fill-rule:nonzero;fill:rgb(34.509805%,38.039216%,40.000001%);fill-opacity:1;" d="M 0.75 169.101562 C 1.492188 166.519531 2.597656 164.339844 2.917969 162.050781 C 4.882812 147.898438 8.917969 134.335938 14.144531 121.085938 C 20.304688 105.460938 28.46875 90.859375 38.558594 77.535156 C 48.914062 63.859375 60.714844 51.386719 74.621094 41.113281 C 77.292969 39.140625 80 37.214844 83.140625 35.390625 C 85.808594 34.859375 88.027344 34.203125 90.742188 33.40625 C 90.335938 34.679688 90.144531 35.605469 89.757812 36.445312 C 87.722656 40.847656 85.484375 45.160156 83.65625 49.644531 C 83.042969 51.148438 83.429688 53.058594 83.214844 54.996094 C 50.539062 81.71875 29.511719 115.367188 20.636719 156.429688 C 19.285156 162.683594 19.082031 169.1875 18.253906 175.886719 C 13.402344 186.640625 8.636719 197.082031 3.628906 208.058594 C 2.269531 205.785156 1.507812 204.519531 0.75 203.25 C 0.75 191.984375 0.75 180.71875 0.75 169.101562 Z M 0.75 169.101562 "/>
<path style=" stroke:none;fill-rule:nonzero;fill:rgb(33.333334%,37.254903%,39.215687%);fill-opacity:1;" d="M 0.75 203.601562 C 1.507812 204.519531 2.269531 205.785156 3.628906 208.058594 C 8.636719 197.082031 13.402344 186.640625 18.5625 175.914062 C 26.644531 177.015625 34.324219 178.402344 41.992188 180.089844 C 41.4375 181.875 40.882812 183.351562 40.351562 184.835938 C 39.167969 188.128906 36.632812 191.246094 38.683594 195.046875 C 31.277344 193.96875 24.195312 192.851562 17.316406 191.765625 C 17.316406 199.066406 16.558594 206.179688 17.5 213.054688 C 18.804688 222.609375 21.382812 231.992188 23.152344 241.503906 C 22.011719 242.523438 20.890625 243.363281 20.320312 244.484375 C 18.636719 247.761719 17.105469 251.128906 15.648438 254.515625 C 14.769531 256.554688 13.558594 257.472656 11.375 256.496094 C 8.582031 245.683594 5.773438 234.871094 3.007812 224.050781 C 2.382812 221.613281 1.910156 219.132812 1.058594 216.710938 C 0.75 212.484375 0.75 208.21875 0.75 203.601562 Z M 0.75 203.601562 "/>
<path style=" stroke:none;fill-rule:nonzero;fill:rgb(21.960784%,26.666668%,28.627452%);fill-opacity:1;" d="M 278.261719 346.707031 C 276.175781 351.300781 273.929688 355.835938 272.074219 360.519531 C 271.164062 362.816406 270.972656 365.402344 270.632812 368.074219 C 263.222656 371.25 255.8125 374.847656 248.003906 377.007812 C 238.152344 379.730469 227.980469 381.28125 217.953125 383.367188 C 217.53125 383.457031 217.183594 383.882812 216.773438 384.453125 C 212.984375 384.75 209.21875 384.75 205.113281 384.476562 C 206.320312 381.28125 207.691406 378.246094 209.46875 375.472656 C 210.726562 373.507812 212.589844 371.945312 214.0625 370.105469 C 214.632812 369.394531 214.863281 368.410156 215.539062 367.445312 C 237.890625 364.261719 258.667969 357.277344 278.261719 346.707031 Z M 278.261719 346.707031 "/>
<path style=" stroke:none;fill-rule:nonzero;fill:rgb(24.313726%,28.627452%,30.588236%);fill-opacity:1;" d="M 215.253906 367.546875 C 214.863281 368.410156 214.632812 369.394531 214.0625 370.105469 C 212.589844 371.945312 210.726562 373.507812 209.46875 375.472656 C 207.691406 378.246094 206.320312 381.28125 204.761719 384.476562 C 192.984375 384.75 181.21875 384.75 169.101562 384.75 C 167.195312 384.203125 165.679688 383.476562 164.078125 383.144531 C 158.773438 382.035156 153.433594 381.066406 147.960938 379.5625 C 149.789062 374.234375 151.769531 369.394531 154.050781 364.535156 C 163.210938 365.78125 172.042969 367.757812 180.945312 368.132812 C 192.351562 368.613281 203.8125 367.800781 215.253906 367.546875 Z M 215.253906 367.546875 "/>
<path style=" stroke:none;fill-rule:nonzero;fill:rgb(30.19608%,33.725491%,35.686275%);fill-opacity:1;" d="M 216.398438 0.75 C 218.84375 1.480469 220.898438 2.398438 223.046875 2.890625 C 225.542969 3.460938 228.121094 3.65625 230.691406 4.457031 C 229.78125 7.570312 228.832031 10.234375 227.925781 12.914062 C 227.171875 15.132812 226.46875 17.371094 225.417969 19.605469 C 216.8125 18.804688 208.53125 18 199.902344 17.128906 C 191.539062 17.289062 183.523438 17.507812 175.507812 17.449219 C 176.574219 14.5625 177.445312 11.855469 178.75 9.371094 C 180.433594 6.160156 181.597656 3.226562 177.75 0.75 C 190.515625 0.75 203.28125 0.75 216.398438 0.75 Z M 216.398438 0.75 "/>
<path style=" stroke:none;fill-rule:nonzero;fill:rgb(31.764707%,35.686275%,37.64706%);fill-opacity:1;" d="M 177.40625 0.75 C 181.597656 3.226562 180.433594 6.160156 178.75 9.371094 C 177.445312 11.855469 176.574219 14.5625 175.175781 17.476562 C 168.78125 18.757812 162.71875 19.734375 156.351562 20.746094 C 147.027344 23.347656 138.015625 25.914062 129.003906 28.179688 C 130.652344 23.792969 132.257812 19.683594 133.960938 15.617188 C 134.742188 13.75 135.816406 11.953125 133.429688 10.457031 C 136.664062 9.21875 139.8125 7.566406 143.160156 6.832031 C 151.28125 5.054688 159.496094 3.710938 167.667969 2.152344 C 168.082031 2.074219 168.425781 1.636719 168.777344 1.058594 C 171.519531 0.75 174.289062 0.75 177.40625 0.75 Z M 177.40625 0.75 "/>
<path style=" stroke:none;fill-rule:nonzero;fill:rgb(28.235295%,31.764707%,33.725491%);fill-opacity:1;" d="M 225.742188 19.601562 C 226.46875 17.371094 227.171875 15.132812 227.925781 12.914062 C 228.832031 10.234375 229.78125 7.570312 230.894531 4.675781 C 240.25 6.949219 249.449219 9.339844 258.574219 11.996094 C 262.121094 13.027344 265.496094 14.648438 269.175781 16.457031 C 272.316406 18.914062 271.957031 21.117188 270.492188 24.046875 C 269.058594 26.910156 268.550781 30.234375 267.367188 33.265625 C 264.316406 32.144531 261.53125 31.109375 258.503906 29.957031 C 254.714844 28.402344 251.253906 26.6875 247.605469 25.589844 C 240.375 23.410156 233.039062 21.578125 225.742188 19.601562 Z M 225.742188 19.601562 "/>
<path style=" stroke:none;fill-rule:nonzero;fill:rgb(23.529412%,27.843139%,29.803923%);fill-opacity:1;" d="M 330.039062 58.425781 C 339.027344 66.894531 346.601562 76.515625 353.210938 86.921875 C 353.613281 87.550781 354.054688 88.152344 354.277344 89.011719 C 353.109375 89.679688 351.570312 89.863281 351.273438 90.566406 C 349.253906 95.386719 347.496094 100.316406 345.457031 105.042969 C 337.90625 94.71875 330.550781 84.566406 323.222656 74.117188 C 325.507812 68.691406 327.773438 63.558594 330.039062 58.425781 Z M 330.039062 58.425781 "/>
<path style=" stroke:none;fill-rule:nonzero;fill:rgb(21.176471%,25.490198%,27.843139%);fill-opacity:1;" d="M 380.300781 151.160156 C 379.351562 152.460938 378.03125 153.285156 377.449219 154.472656 C 375.046875 159.351562 372.921875 164.363281 370.566406 169.265625 C 370.011719 170.421875 368.964844 171.347656 367.832031 172.128906 C 364.761719 159.585938 362.007812 147.292969 359.464844 134.863281 C 362.796875 128.546875 365.917969 122.367188 369.035156 116.1875 C 374.191406 127.28125 378.207031 138.75 380.300781 151.160156 Z M 380.300781 151.160156 "/>
<path style=" stroke:none;fill-rule:nonzero;fill:rgb(26.274511%,30.19608%,32.549021%);fill-opacity:1;" d="M 267.636719 33.355469 C 268.550781 30.234375 269.058594 26.910156 270.492188 24.046875 C 271.957031 21.117188 272.316406 18.914062 269.339844 16.664062 C 280.449219 22.539062 291.621094 28.660156 302.773438 35.179688 C 304.164062 39.734375 302.195312 43.234375 300.605469 46.828125 C 299.859375 48.507812 299.28125 50.261719 298.394531 51.851562 C 287.988281 45.601562 277.8125 39.476562 267.636719 33.355469 Z M 267.636719 33.355469 "/>
<path style=" stroke:none;fill-rule:nonzero;fill:rgb(22.352941%,26.274511%,28.627452%);fill-opacity:1;" d="M 368.992188 115.921875 C 365.917969 122.367188 362.796875 128.546875 359.296875 134.65625 C 354.492188 124.796875 350.074219 115.003906 345.65625 105.210938 C 347.496094 100.316406 349.253906 95.386719 351.273438 90.566406 C 351.570312 89.863281 353.109375 89.679688 354.351562 89.25 C 359.402344 98.046875 364.175781 106.851562 368.992188 115.921875 Z M 368.992188 115.921875 "/>
<path style=" stroke:none;fill-rule:nonzero;fill:rgb(25.098041%,29.019609%,31.37255%);fill-opacity:1;" d="M 298.628906 51.980469 C 299.28125 50.261719 299.859375 48.507812 300.605469 46.828125 C 302.195312 43.234375 304.164062 39.734375 302.925781 35.386719 C 311.996094 42.800781 320.894531 50.398438 329.914062 58.210938 C 327.773438 63.558594 325.507812 68.691406 323.003906 73.984375 C 320.1875 71.652344 317.605469 69.167969 314.910156 66.472656 C 313.609375 65.179688 312.425781 64.09375 311.125 62.789062 C 306.878906 59.039062 302.753906 55.511719 298.628906 51.980469 Z M 298.628906 51.980469 "/>
<path style=" stroke:none;fill-rule:nonzero;fill:rgb(33.333334%,36.862746%,38.82353%);fill-opacity:1;" d="M 133.214844 10.398438 C 135.816406 11.953125 134.742188 13.75 133.960938 15.617188 C 132.257812 19.683594 130.652344 23.792969 128.785156 28.332031 C 124.183594 30.828125 119.804688 32.871094 115.160156 34.988281 C 103.738281 40.605469 92.878906 46.625 83.359375 54.785156 C 83.429688 53.058594 83.042969 51.148438 83.65625 49.644531 C 85.484375 45.160156 87.722656 40.847656 89.757812 36.445312 C 90.144531 35.605469 90.335938 34.679688 90.742188 33.40625 C 88.027344 34.203125 85.808594 34.859375 83.398438 35.34375 C 87.574219 32.222656 91.679688 28.75 96.351562 26.425781 C 107.125 21.070312 118.175781 16.273438 129.546875 11.171875 C 130.171875 10.976562 130.332031 10.832031 130.46875 10.660156 C 131.3125 10.550781 132.15625 10.445312 133.214844 10.398438 Z M 133.214844 10.398438 "/>
<path style=" stroke:none;fill-rule:nonzero;fill:rgb(31.764707%,35.686275%,37.64706%);fill-opacity:1;" d="M 130.296875 10.679688 C 130.332031 10.832031 130.171875 10.976562 129.835938 11.164062 C 129.769531 11.003906 129.914062 10.824219 130.296875 10.679688 Z M 130.296875 10.679688 "/>
<path style=" stroke:none;fill-rule:nonzero;fill:rgb(26.666668%,30.588236%,32.941177%);fill-opacity:1;" d="M 153.75 364.550781 C 151.769531 369.394531 149.789062 374.234375 147.757812 379.355469 C 137.234375 376.210938 126.628906 373.152344 116.347656 369.242188 C 109.648438 366.699219 103.421875 362.921875 97.109375 359.46875 C 98.601562 358.183594 100.355469 357.378906 101.261719 356.015625 C 103.28125 352.972656 104.875 349.648438 106.8125 346.457031 C 106.976562 346.476562 107.242188 346.679688 107.257812 346.917969 C 108.015625 347.445312 108.753906 347.734375 109.757812 348.054688 C 112.910156 349.515625 115.691406 351.242188 118.707031 352.324219 C 130.347656 356.511719 142.0625 360.492188 153.75 364.550781 Z M 153.75 364.550781 "/>
<path style=" stroke:none;fill-rule:nonzero;fill:rgb(31.764707%,35.686275%,37.64706%);fill-opacity:1;" d="M 11.351562 256.773438 C 13.558594 257.472656 14.769531 256.554688 15.648438 254.515625 C 17.105469 251.128906 18.636719 247.761719 20.320312 244.484375 C 20.890625 243.363281 22.011719 242.523438 23.328125 241.707031 C 28.234375 256.824219 34.160156 271.132812 42.789062 284.5 C 43.394531 285.796875 43.976562 286.839844 44.265625 287.917969 C 42.613281 289.363281 41.132812 290.675781 39.929688 292.210938 C 37.746094 294.996094 37.878906 299.476562 33.660156 300.789062 C 24.300781 287.1875 16.914062 272.582031 11.351562 256.773438 Z M 11.351562 256.773438 "/>
<path style=" stroke:none;fill-rule:nonzero;fill:rgb(28.627452%,32.549021%,34.509805%);fill-opacity:1;" d="M 106.644531 346.4375 C 104.875 349.648438 103.28125 352.972656 101.261719 356.015625 C 100.355469 357.378906 98.601562 358.183594 96.949219 359.257812 C 83.359375 351.699219 71.125 342.679688 60.316406 331.730469 C 61.710938 330.453125 63.332031 329.640625 64.109375 328.332031 C 66.027344 325.082031 67.5625 321.605469 69.472656 318.355469 C 71.789062 320.429688 73.722656 322.582031 76.003906 324.261719 C 86.164062 331.726562 96.421875 339.058594 106.644531 346.4375 Z M 106.644531 346.4375 "/>
<path style=" stroke:none;fill-rule:nonzero;fill:rgb(30.19608%,34.117648%,36.078432%);fill-opacity:1;" d="M 69.25 318.21875 C 67.5625 321.605469 66.027344 325.082031 64.109375 328.332031 C 63.332031 329.640625 61.710938 330.453125 60.195312 331.507812 C 49.9375 322.554688 41.492188 312.269531 33.777344 301.019531 C 37.878906 299.476562 37.746094 294.996094 39.929688 292.210938 C 41.132812 290.675781 42.613281 289.363281 44.449219 288.078125 C 46.335938 290.390625 47.53125 292.757812 49.1875 294.734375 C 55.796875 302.628906 62.550781 310.402344 69.25 318.21875 Z M 69.25 318.21875 "/>
<path style=" stroke:none;fill-rule:nonzero;fill:rgb(90.196079%,90.196079%,90.196079%);fill-opacity:1;" d="M 69.472656 318.355469 C 62.550781 310.402344 55.796875 302.628906 49.1875 294.734375 C 47.53125 292.757812 46.335938 290.390625 44.742188 288.042969 C 43.976562 286.839844 43.394531 285.796875 43.058594 284.503906 C 46.546875 286.707031 49.796875 289.160156 53.035156 291.625 C 78.402344 310.90625 106.617188 323.230469 138.410156 327.195312 C 157.789062 329.609375 177.050781 329.195312 196.085938 325.144531 C 234.136719 317.046875 266.257812 298.5625 292.160156 269.320312 C 310.734375 248.351562 323.472656 224.359375 331.039062 197.300781 C 341.148438 195.726562 350.949219 194.226562 360.75 192.730469 C 363.304688 192.390625 365.855469 192.050781 369.1875 191.609375 C 368.519531 199.964844 368.28125 207.945312 367.179688 215.808594 C 360.9375 260.421875 340.726562 297.578125 306.4375 326.757812 C 297.84375 334.074219 287.960938 339.875 278.464844 346.539062 C 258.667969 357.277344 237.890625 364.261719 215.539062 367.445312 C 203.8125 367.800781 192.351562 368.613281 180.945312 368.132812 C 172.042969 367.757812 163.210938 365.78125 154.050781 364.535156 C 142.0625 360.492188 130.347656 356.511719 118.707031 352.324219 C 115.691406 351.242188 112.910156 349.515625 109.613281 347.886719 C 108.546875 347.351562 107.894531 347.015625 107.242188 346.679688 C 107.242188 346.679688 106.976562 346.476562 106.8125 346.457031 C 96.421875 339.058594 86.164062 331.726562 76.003906 324.261719 C 73.722656 322.582031 71.789062 320.429688 69.472656 318.355469 Z M 69.472656 318.355469 "/>
<path style=" stroke:none;fill-rule:nonzero;fill:rgb(80.784315%,23.137255%,21.568628%);fill-opacity:1;" d="M 315.027344 66.683594 C 317.605469 69.167969 320.1875 71.652344 322.984375 74.273438 C 330.550781 84.566406 337.90625 94.71875 345.457031 105.042969 C 350.074219 115.003906 354.492188 124.796875 359.082031 134.792969 C 362.007812 147.292969 364.761719 159.585938 367.585938 172.1875 C 367.5 173.421875 367.34375 174.34375 366.671875 175.445312 C 355.59375 177.296875 345.035156 178.960938 334.480469 180.308594 C 334.550781 178.996094 334.523438 177.984375 334.695312 177.007812 C 337.546875 160.78125 337.359375 144.511719 335.035156 128.277344 C 332.164062 108.21875 325.941406 89.203125 316.539062 71.234375 C 315.804688 69.835938 315.519531 68.203125 315.027344 66.683594 Z M 315.027344 66.683594 "/>
<path style=" stroke:none;fill-rule:nonzero;fill:rgb(21.176471%,25.490198%,27.843139%);fill-opacity:1;" d="M 334.476562 180.625 C 345.035156 178.960938 355.59375 177.296875 366.453125 175.628906 C 365.113281 179.835938 363.445312 184.039062 361.851562 188.269531 C 361.382812 189.519531 361.117188 190.847656 360.753906 192.433594 C 350.949219 194.226562 341.148438 195.726562 330.710938 197.261719 C 325.054688 197.726562 320.03125 198.15625 315.023438 198.308594 C 316.1875 195.203125 317.375 192.386719 318.464844 189.539062 C 319.371094 187.164062 320.160156 184.75 321.316406 182.28125 C 325.910156 181.683594 330.191406 181.15625 334.476562 180.625 Z M 334.476562 180.625 "/>
<path style=" stroke:none;fill-rule:nonzero;fill:rgb(91.37255%,36.078432%,34.901962%);fill-opacity:1;" d="M 83.214844 54.996094 C 92.878906 46.625 103.738281 40.605469 115.164062 35.304688 C 115.132812 36.609375 114.964844 37.738281 114.503906 38.734375 C 101.789062 66.210938 89.078125 93.683594 76.300781 121.125 C 68.410156 138.066406 60.367188 154.941406 52.488281 171.886719 C 51.242188 174.5625 50.480469 177.46875 49.15625 180.265625 C 46.546875 180.105469 44.277344 179.945312 42.007812 179.785156 C 34.324219 178.402344 26.644531 177.015625 18.652344 175.605469 C 19.082031 169.1875 19.285156 162.683594 20.636719 156.429688 C 29.511719 115.367188 50.539062 81.71875 83.214844 54.996094 Z M 83.214844 54.996094 "/>
<path style=" stroke:none;fill-rule:nonzero;fill:rgb(100%,100%,100%);fill-opacity:1;" d="M 315.007812 198.582031 C 320.03125 198.15625 325.054688 197.726562 330.402344 197.335938 C 323.472656 224.359375 310.734375 248.351562 292.160156 269.320312 C 266.257812 298.5625 234.136719 317.046875 196.085938 325.144531 C 177.050781 329.195312 157.789062 329.609375 138.410156 327.195312 C 106.617188 323.230469 78.402344 310.90625 53.035156 291.625 C 49.796875 289.160156 46.546875 286.707031 43.03125 284.246094 C 34.160156 271.132812 28.234375 256.824219 23.59375 241.652344 C 21.382812 231.992188 18.804688 222.609375 17.5 213.054688 C 16.558594 206.179688 17.316406 199.066406 17.316406 191.765625 C 24.195312 192.851562 31.277344 193.96875 38.949219 195.183594 C 51.605469 196.464844 63.675781 197.648438 76.035156 198.949219 C 87.667969 199.546875 99.007812 200.101562 110.351562 200.449219 C 112.855469 200.527344 113.828125 201.28125 114.039062 203.835938 C 114.277344 206.667969 115.117188 209.449219 115.703125 212.527344 C 115.882812 213.398438 116.054688 213.996094 116.234375 214.59375 C 120.949219 230.507812 129.292969 244.035156 142.558594 254.617188 C 156.441406 265.882812 171.992188 272.15625 190.097656 272.570312 C 208.765625 272.980469 225.453125 268.09375 240.34375 256.707031 C 257.535156 243.546875 267.785156 226.394531 271.21875 205.347656 C 271.867188 201.363281 273.105469 200.445312 276.941406 200.347656 C 289.636719 200.019531 302.316406 199.210938 315.007812 198.582031 Z M 315.007812 198.582031 "/>
<path style=" stroke:none;fill-rule:nonzero;fill:rgb(32.941177%,36.470589%,38.431373%);fill-opacity:1;" d="M 75.746094 198.828125 C 63.675781 197.648438 51.605469 196.464844 39.269531 195.148438 C 36.632812 191.246094 39.167969 188.128906 40.351562 184.835938 C 40.882812 183.351562 41.4375 181.875 41.992188 180.089844 C 44.277344 179.945312 46.546875 180.105469 49.425781 180.378906 C 60.605469 181.582031 71.175781 182.667969 81.699219 184.03125 C 79.683594 189.144531 77.714844 193.988281 75.746094 198.828125 Z M 75.746094 198.828125 "/>
<path style=" stroke:none;fill-rule:nonzero;fill:rgb(91.37255%,33.725491%,32.156864%);fill-opacity:1;" d="M 156.660156 20.710938 C 162.71875 19.734375 168.78125 18.757812 175.175781 17.753906 C 183.523438 17.507812 191.539062 17.289062 199.890625 17.417969 C 200.03125 18.484375 199.941406 19.25 199.628906 19.917969 C 185.945312 49.339844 172.207031 78.738281 158.574219 108.183594 C 156.234375 113.238281 154.34375 118.5 152.058594 123.847656 C 148.5 126.308594 144.792969 128.214844 141.816406 130.925781 C 126.757812 144.65625 116.710938 161.238281 113.988281 181.757812 C 113.726562 183.714844 113.054688 184.671875 110.949219 184.582031 C 101.46875 184.164062 91.984375 183.828125 82.503906 183.183594 C 82.863281 181.726562 83.078125 180.480469 83.589844 179.371094 C 87.25 171.445312 90.988281 163.554688 94.664062 155.628906 C 105.519531 132.207031 116.324219 108.753906 127.21875 85.347656 C 135.007812 68.609375 142.964844 51.945312 150.726562 35.195312 C 152.917969 30.46875 154.695312 25.546875 156.660156 20.710938 Z M 156.660156 20.710938 "/>
<path style=" stroke:none;fill-rule:nonzero;fill:rgb(90.980393%,31.764707%,30.19608%);fill-opacity:1;" d="M 152.246094 123.667969 C 154.34375 118.5 156.234375 113.238281 158.574219 108.183594 C 172.207031 78.738281 185.945312 49.339844 199.628906 19.917969 C 199.941406 19.25 200.03125 18.484375 200.238281 17.480469 C 208.53125 18 216.8125 18.804688 225.417969 19.605469 C 233.039062 21.578125 240.375 23.410156 247.605469 25.589844 C 251.253906 26.6875 254.714844 28.402344 258.453125 30.226562 C 254.492188 39.785156 250.414062 48.996094 246.164062 58.125 C 238.394531 74.820312 230.472656 91.445312 222.738281 108.15625 C 221.402344 111.046875 220.683594 114.222656 219.386719 117.207031 C 214.097656 116.027344 209.101562 114.90625 203.828125 113.652344 C 201.328125 113.285156 199.105469 112.9375 196.875 112.851562 C 183.613281 112.335938 170.863281 114.414062 158.6875 120.621094 C 156.363281 121.675781 154.304688 122.671875 152.246094 123.667969 Z M 152.246094 123.667969 "/>
<path style=" stroke:none;fill-rule:nonzero;fill:rgb(91.37255%,34.901962%,33.725491%);fill-opacity:1;" d="M 156.351562 20.746094 C 154.695312 25.546875 152.917969 30.46875 150.726562 35.195312 C 142.964844 51.945312 135.007812 68.609375 127.21875 85.347656 C 116.324219 108.753906 105.519531 132.207031 94.664062 155.628906 C 90.988281 163.554688 87.25 171.445312 83.589844 179.371094 C 83.078125 180.480469 82.863281 181.726562 82.316406 183.261719 C 82 183.660156 81.875 183.707031 81.75 183.757812 C 71.175781 182.667969 60.605469 181.582031 49.765625 180.378906 C 50.480469 177.46875 51.242188 174.5625 52.488281 171.886719 C 60.367188 154.941406 68.410156 138.066406 76.300781 121.125 C 89.078125 93.683594 101.789062 66.210938 114.503906 38.734375 C 114.964844 37.738281 115.132812 36.609375 115.433594 35.226562 C 119.804688 32.871094 124.183594 30.828125 128.78125 28.628906 C 138.015625 25.914062 147.027344 23.347656 156.351562 20.746094 Z M 156.351562 20.746094 "/>
<path style=" stroke:none;fill-rule:nonzero;fill:rgb(90.588236%,29.411766%,27.843139%);fill-opacity:1;" d="M 219.675781 117.269531 C 220.683594 114.222656 221.402344 111.046875 222.738281 108.15625 C 230.472656 91.445312 238.394531 74.820312 246.164062 58.125 C 250.414062 48.996094 254.492188 39.785156 258.695312 30.34375 C 261.53125 31.109375 264.316406 32.144531 267.367188 33.265625 C 277.8125 39.476562 287.988281 45.601562 298.394531 51.851562 C 302.753906 55.511719 306.878906 59.039062 310.996094 63.011719 C 310.285156 64.628906 309.484375 65.757812 308.898438 66.992188 C 302.59375 80.304688 296.289062 93.617188 290.054688 106.960938 C 285.988281 115.667969 282.121094 124.464844 278.019531 133.152344 C 273.867188 141.949219 269.539062 150.660156 265.109375 159.210938 C 263.820312 157.007812 262.707031 155.007812 261.527344 152.765625 C 256.9375 144.914062 251.652344 137.941406 244.519531 132.195312 C 237.152344 125.398438 228.609375 121.003906 219.675781 117.269531 Z M 219.675781 117.269531 "/>
<path style=" stroke:none;fill-rule:nonzero;fill:rgb(90.196079%,27.058825%,25.490198%);fill-opacity:1;" d="M 265.289062 159.410156 C 269.539062 150.660156 273.867188 141.949219 278.019531 133.152344 C 282.121094 124.464844 285.988281 115.667969 290.054688 106.960938 C 296.289062 93.617188 302.59375 80.304688 308.898438 66.992188 C 309.484375 65.757812 310.285156 64.628906 311.117188 63.230469 C 312.425781 64.09375 313.609375 65.179688 314.910156 66.472656 C 315.519531 68.203125 315.804688 69.835938 316.539062 71.234375 C 325.941406 89.203125 332.164062 108.21875 335.035156 128.277344 C 337.359375 144.511719 337.546875 160.78125 334.695312 177.007812 C 334.523438 177.984375 334.550781 178.996094 334.480469 180.308594 C 330.191406 181.15625 325.910156 181.683594 320.984375 182.246094 C 304.3125 183.285156 288.28125 184.289062 272.101562 185.042969 C 269.734375 176.332031 267.511719 167.871094 265.289062 159.410156 Z M 265.289062 159.410156 "/>
<path style=" stroke:none;fill-rule:nonzero;fill:rgb(28.627452%,32.549021%,34.509805%);fill-opacity:1;" d="M 107.257812 346.917969 C 107.894531 347.015625 108.546875 347.351562 109.34375 347.859375 C 108.753906 347.734375 108.015625 347.445312 107.257812 346.917969 Z M 107.257812 346.917969 "/>
<path style=" stroke:none;fill-rule:nonzero;fill:rgb(23.529412%,27.450982%,29.803923%);fill-opacity:1;" d="M 272.25 185.292969 C 288.28125 184.289062 304.3125 183.285156 320.671875 182.316406 C 320.160156 184.75 319.371094 187.164062 318.464844 189.539062 C 317.375 192.386719 316.1875 195.203125 315.023438 198.308594 C 302.316406 199.210938 289.636719 200.019531 276.941406 200.347656 C 273.105469 200.445312 271.867188 201.363281 271.21875 205.347656 C 267.785156 226.394531 257.535156 243.546875 240.332031 256.402344 C 240.328125 255.246094 240.453125 254.238281 240.84375 253.351562 C 243.957031 246.296875 247.035156 239.226562 250.277344 232.234375 C 257.554688 216.566406 264.917969 200.9375 272.25 185.292969 Z M 272.25 185.292969 "/>
<path style=" stroke:none;fill-rule:nonzero;fill:rgb(30.19608%,34.117648%,36.078432%);fill-opacity:1;" d="M 81.699219 184.03125 C 81.875 183.707031 82 183.660156 82.3125 183.539062 C 91.984375 183.828125 101.46875 184.164062 110.949219 184.582031 C 113.054688 184.671875 113.726562 183.714844 113.988281 181.757812 C 116.710938 161.238281 126.757812 144.65625 141.816406 130.925781 C 144.792969 128.214844 148.5 126.308594 152.058594 123.847656 C 154.304688 122.671875 156.363281 121.675781 158.695312 120.929688 C 158.632812 122.476562 158.476562 123.859375 157.929688 125.0625 C 155.726562 129.90625 153.300781 134.648438 151.191406 139.53125 C 150.625 140.847656 150.878906 142.523438 150.628906 144.246094 C 136.773438 157.34375 128.964844 172.917969 128.648438 192.03125 C 127.496094 192.96875 126.320312 193.742188 125.769531 194.835938 C 123.332031 199.671875 121.160156 204.648438 118.683594 209.46875 C 118.097656 210.605469 116.710938 211.335938 115.691406 212.253906 C 115.117188 209.449219 114.277344 206.667969 114.039062 203.835938 C 113.828125 201.28125 112.855469 200.527344 110.351562 200.449219 C 99.007812 200.101562 87.667969 199.546875 76.035156 198.949219 C 77.714844 193.988281 79.683594 189.144531 81.699219 184.03125 Z M 81.699219 184.03125 "/>
<path style=" stroke:none;fill-rule:nonzero;fill:rgb(24.705882%,29.019609%,31.37255%);fill-opacity:1;" d="M 272.101562 185.042969 C 264.917969 200.9375 257.554688 216.566406 250.277344 232.234375 C 247.035156 239.226562 243.957031 246.296875 240.84375 253.351562 C 240.453125 254.238281 240.328125 255.246094 240.089844 256.503906 C 225.453125 268.09375 208.765625 272.980469 190.117188 272.320312 C 192.550781 266.8125 195.28125 261.679688 198.335938 256.53125 C 202.304688 255.804688 205.984375 255.234375 209.585938 254.351562 C 222.632812 251.140625 233.515625 244.132812 241.765625 233.761719 C 257.339844 214.183594 260.800781 192.351562 252.3125 168.667969 C 254.582031 164.378906 256.523438 160.136719 258.691406 156.011719 C 259.316406 154.832031 260.609375 154 261.59375 153.007812 C 262.707031 155.007812 263.820312 157.007812 265.109375 159.210938 C 267.511719 167.871094 269.734375 176.332031 272.101562 185.042969 Z M 272.101562 185.042969 "/>
<path style=" stroke:none;fill-rule:nonzero;fill:rgb(26.666668%,30.980393%,33.333334%);fill-opacity:1;" d="M 198.011719 256.542969 C 195.28125 261.679688 192.550781 266.8125 189.800781 272.199219 C 171.992188 272.15625 156.441406 265.882812 142.574219 254.292969 C 142.492188 253.003906 142.316406 252.179688 142.574219 251.523438 C 143.78125 248.414062 144.867188 245.203125 146.574219 242.375 C 146.984375 241.695312 149.59375 242.34375 151.191406 242.371094 C 151.304688 242.371094 151.417969 242.28125 151.785156 242.289062 C 152.753906 242.820312 153.496094 243.265625 154.1875 243.777344 C 164.535156 251.449219 176.050781 255.90625 189.339844 256.472656 C 192.460938 256.507812 195.234375 256.523438 198.011719 256.542969 Z M 198.011719 256.542969 "/>
<path style=" stroke:none;fill-rule:nonzero;fill:rgb(28.627452%,32.941177%,34.901962%);fill-opacity:1;" d="M 151.53125 242.230469 C 151.417969 242.28125 151.304688 242.371094 151.191406 242.371094 C 149.59375 242.34375 146.984375 241.695312 146.574219 242.375 C 144.867188 245.203125 143.78125 248.414062 142.574219 251.523438 C 142.316406 252.179688 142.492188 253.003906 142.453125 254.074219 C 129.292969 244.035156 120.949219 230.507812 116.234375 214.59375 C 116.054688 213.996094 115.882812 213.398438 115.703125 212.527344 C 116.710938 211.335938 118.097656 210.605469 118.683594 209.46875 C 121.160156 204.648438 123.332031 199.671875 125.769531 194.835938 C 126.320312 193.742188 127.496094 192.96875 128.667969 192.378906 C 129.230469 196.679688 129.183594 200.703125 129.839844 204.613281 C 131.835938 216.496094 137.269531 226.726562 145.613281 235.722656 C 147.667969 238.035156 149.601562 240.132812 151.53125 242.230469 Z M 151.53125 242.230469 "/>
<path style=" stroke:none;fill-rule:nonzero;fill:rgb(29.019609%,32.941177%,34.901962%);fill-opacity:1;" d="M 150.753906 144.03125 C 150.878906 142.523438 150.625 140.847656 151.191406 139.53125 C 153.300781 134.648438 155.726562 129.90625 157.929688 125.0625 C 158.476562 123.859375 158.632812 122.476562 158.960938 120.871094 C 170.863281 114.414062 183.613281 112.335938 196.875 112.851562 C 199.105469 112.9375 201.328125 113.285156 203.710938 113.910156 C 203.234375 115.804688 202.511719 117.265625 201.996094 118.800781 C 200.863281 122.167969 199.832031 125.570312 198.507812 128.972656 C 197.917969 129.007812 197.578125 129.023438 196.890625 129.03125 C 179.253906 127.851562 164.191406 133.457031 150.753906 144.03125 Z M 150.753906 144.03125 "/>
<path style=" stroke:none;fill-rule:nonzero;fill:rgb(27.058825%,30.980393%,33.333334%);fill-opacity:1;" d="M 198.757812 128.957031 C 199.832031 125.570312 200.863281 122.167969 201.996094 118.800781 C 202.511719 117.265625 203.234375 115.804688 203.984375 114.046875 C 209.101562 114.90625 214.097656 116.027344 219.386719 117.207031 C 228.609375 121.003906 237.152344 125.398438 244.386719 132.453125 C 242.136719 137.371094 239.871094 141.835938 237.371094 146.242188 C 234.355469 144.09375 231.671875 141.871094 228.78125 139.949219 C 219.671875 133.882812 209.808594 129.78125 198.757812 128.957031 Z M 198.757812 128.957031 "/>
<path style=" stroke:none;fill-rule:nonzero;fill:rgb(25.490198%,29.803923%,31.764707%);fill-opacity:1;" d="M 237.609375 146.300781 C 239.871094 141.835938 242.136719 137.371094 244.53125 132.648438 C 251.652344 137.941406 256.9375 144.914062 261.527344 152.765625 C 260.609375 154 259.316406 154.832031 258.691406 156.011719 C 256.523438 160.136719 254.582031 164.378906 252.191406 168.425781 C 248.605469 160.414062 244.171875 153.386719 237.753906 147.46875 C 237.695312 146.921875 237.652344 146.613281 237.609375 146.300781 Z M 237.609375 146.300781 "/>
<path style=" stroke:none;fill-rule:nonzero;fill:rgb(36.078432%,43.137255%,46.666667%);fill-opacity:1;" d="M 150.628906 144.246094 C 164.191406 133.457031 179.253906 127.851562 196.890625 129.320312 C 196.871094 130.910156 196.617188 132.253906 196.105469 133.484375 C 194.542969 137.246094 192.882812 140.964844 190.929688 144.714844 C 188.503906 144.976562 186.390625 145.113281 184.316406 145.488281 C 155.351562 150.734375 137.816406 180.210938 147.332031 208.054688 C 149.082031 213.175781 152.132812 217.851562 154.398438 222.929688 C 152.800781 226.261719 151.335938 229.382812 149.996094 232.554688 C 149.128906 234.605469 147.824219 235.796875 145.484375 235.507812 C 137.269531 226.726562 131.835938 216.496094 129.839844 204.613281 C 129.183594 200.703125 129.230469 196.679688 128.933594 192.359375 C 128.964844 172.917969 136.773438 157.34375 150.628906 144.246094 Z M 150.628906 144.246094 "/>
<path style=" stroke:none;fill-rule:nonzero;fill:rgb(32.549021%,40.000001%,43.921569%);fill-opacity:1;" d="M 237.773438 147.699219 C 244.171875 153.386719 248.605469 160.414062 251.949219 168.511719 C 260.800781 192.351562 257.339844 214.183594 241.765625 233.761719 C 233.515625 244.132812 222.632812 251.140625 209.585938 254.351562 C 205.984375 255.234375 202.304688 255.804688 198.335938 256.53125 C 195.234375 256.523438 192.460938 256.507812 189.355469 256.195312 C 189.554688 254.527344 190.070312 253.144531 190.617188 251.769531 C 192.070312 248.109375 193.53125 244.449219 195.3125 240.773438 C 209.59375 239.558594 221.492188 234.003906 230.078125 222.859375 C 244.621094 203.988281 244.480469 181.929688 230.535156 162.691406 C 235.007812 158.542969 236.980469 153.398438 237.773438 147.699219 Z M 237.773438 147.699219 "/>
<path style=" stroke:none;fill-rule:nonzero;fill:rgb(34.509805%,41.568628%,45.09804%);fill-opacity:1;" d="M 194.992188 240.789062 C 193.53125 244.449219 192.070312 248.109375 190.617188 251.769531 C 190.070312 253.144531 189.554688 254.527344 189.007812 256.183594 C 176.050781 255.90625 164.535156 251.449219 154.1875 243.777344 C 153.496094 243.265625 152.753906 242.820312 151.785156 242.289062 C 149.601562 240.132812 147.667969 238.035156 145.613281 235.722656 C 147.824219 235.796875 149.128906 234.605469 149.996094 232.554688 C 151.335938 229.382812 152.800781 226.261719 154.601562 223.058594 C 158.566406 225.929688 162.136719 228.867188 165.855469 232.007812 C 174.636719 238.550781 184.355469 241.21875 194.992188 240.789062 Z M 194.992188 240.789062 "/>
<path style=" stroke:none;fill-rule:nonzero;fill:rgb(34.117648%,41.568628%,45.09804%);fill-opacity:1;" d="M 237.753906 147.46875 C 236.980469 153.398438 235.007812 158.542969 230.398438 162.484375 C 226.34375 159.203125 222.679688 156.082031 218.875 152.75 C 217.695312 151.875 216.660156 151.207031 215.613281 150.554688 C 209.535156 146.765625 202.582031 146 195.503906 144.789062 C 194.917969 144.78125 194.582031 144.789062 193.945312 144.785156 C 192.84375 144.785156 192.039062 144.792969 191.242188 144.777344 C 191.246094 144.75 191.261719 144.699219 191.261719 144.699219 C 192.882812 140.964844 194.542969 137.246094 196.105469 133.484375 C 196.617188 132.253906 196.871094 130.910156 197.242188 129.332031 C 197.578125 129.023438 197.917969 129.007812 198.507812 128.972656 C 209.808594 129.78125 219.671875 133.882812 228.78125 139.949219 C 231.671875 141.871094 234.355469 144.09375 237.371094 146.242188 C 237.652344 146.613281 237.695312 146.921875 237.753906 147.46875 Z M 237.753906 147.46875 "/>
<path style=" stroke:none;fill-rule:nonzero;fill:rgb(28.627452%,32.549021%,34.901962%);fill-opacity:1;" d="M 165.707031 231.804688 C 162.136719 228.867188 158.566406 225.929688 154.789062 222.863281 C 152.132812 217.851562 149.082031 213.175781 147.332031 208.054688 C 137.816406 180.210938 155.351562 150.734375 184.316406 145.488281 C 186.390625 145.113281 188.503906 144.976562 190.929688 144.714844 C 191.261719 144.699219 191.246094 144.75 191.195312 145.027344 C 188.972656 149.277344 186.660156 153.183594 184.738281 157.273438 C 184.207031 158.398438 184.855469 160.078125 184.730469 161.667969 C 171.347656 165.90625 163.320312 174.589844 161.152344 188.269531 C 159.316406 199.835938 163.707031 209.253906 171.792969 217.503906 C 169.726562 222.460938 167.71875 227.132812 165.707031 231.804688 Z M 165.707031 231.804688 "/>
<path style=" stroke:none;fill-rule:nonzero;fill:rgb(26.274511%,30.588236%,32.549021%);fill-opacity:1;" d="M 165.855469 232.007812 C 167.71875 227.132812 169.726562 222.460938 172.035156 217.605469 C 189.503906 231.203125 213.664062 224.511719 222.003906 205.648438 C 227.5 193.214844 225.097656 176.59375 211.066406 165.992188 C 212.253906 164.566406 213.28125 163.347656 214.066406 161.988281 C 215.78125 159.015625 217.375 155.972656 219.015625 152.957031 C 222.679688 156.082031 226.34375 159.203125 230.140625 162.535156 C 244.480469 181.929688 244.621094 203.988281 230.078125 222.859375 C 221.492188 234.003906 209.59375 239.558594 195.3125 240.773438 C 184.355469 241.21875 174.636719 238.550781 165.855469 232.007812 Z M 165.855469 232.007812 "/>
<path style=" stroke:none;fill-rule:nonzero;fill:rgb(27.058825%,31.37255%,33.725491%);fill-opacity:1;" d="M 218.875 152.75 C 217.375 155.972656 215.78125 159.015625 214.066406 161.988281 C 213.28125 163.347656 212.253906 164.566406 210.84375 165.890625 C 202.484375 161.03125 193.984375 159.785156 184.960938 161.503906 C 184.855469 160.078125 184.207031 158.398438 184.738281 157.273438 C 186.660156 153.183594 188.972656 149.277344 191.1875 145.050781 C 192.039062 144.792969 192.84375 144.785156 193.996094 144.972656 C 194.816406 145.046875 195.285156 144.921875 195.753906 144.800781 C 202.582031 146 209.535156 146.765625 215.613281 150.554688 C 216.660156 151.207031 217.695312 151.875 218.875 152.75 Z M 218.875 152.75 "/>
<path style=" stroke:none;fill-rule:nonzero;fill:rgb(28.627452%,32.549021%,34.901962%);fill-opacity:1;" d="M 195.503906 144.789062 C 195.285156 144.921875 194.816406 145.046875 194.296875 144.980469 C 194.582031 144.789062 194.917969 144.78125 195.503906 144.789062 Z M 195.503906 144.789062 "/>
<path style=" stroke:none;fill-rule:nonzero;fill:rgb(95.294118%,95.294118%,95.294118%);fill-opacity:1;" d="M 184.730469 161.667969 C 193.984375 159.785156 202.484375 161.03125 210.570312 166.039062 C 225.097656 176.59375 227.5 193.214844 222.003906 205.648438 C 213.664062 224.511719 189.503906 231.203125 172.089844 217.316406 C 163.707031 209.253906 159.316406 199.835938 161.152344 188.269531 C 163.320312 174.589844 171.347656 165.90625 184.730469 161.667969 Z M 184.730469 161.667969 "/>
</g>
</svg>
